<?xml version="1.0" standalone="no"?>
<!DOCTYPE svg PUBLIC "-//W3C//DTD SVG 20010904//EN"
 "http://www.w3.org/TR/2001/REC-SVG-20010904/DTD/svg10.dtd">
<svg version="1.0" xmlns="http://www.w3.org/2000/svg"
 width="762.000000pt" height="775.000000pt" viewBox="0 0 762.000000 775.000000"
 preserveAspectRatio="xMidYMid meet">

<g transform="translate(0.000000,775.000000) scale(0.100000,-0.100000)"
fill="#000000" stroke="none">
<path d="M0 3870 l0 -1260 3810 0 3810 0 0 1260 0 1260 -3810 0 -3810 0 0
-1260z"/>
<path d="M4735 2426 l-80 -11 -7 -50 c-9 -74 -9 -153 1 -159 4 -3 49 2 99 11
l90 16 7 93 c7 93 4 115 -18 113 -7 -1 -48 -7 -92 -13z"/>
<path d="M7175 2361 c-22 -10 -59 -37 -83 -60 -46 -46 -62 -46 -62 -1 0 16 -3
31 -7 33 -9 5 -181 -17 -187 -24 -5 -4 -20 -205 -46 -589 -30 -449 -43 -596
-51 -606 -11 -13 -144 -38 -159 -29 -13 8 -13 143 0 272 5 54 16 220 25 368 9
149 20 314 25 368 6 54 10 118 10 143 l0 46 -52 -7 c-136 -16 -139 -17 -148
-39 -5 -11 -14 -100 -20 -196 -39 -672 -47 -749 -74 -779 -29 -31 -63 -44 -87
-31 -16 9 -19 22 -19 88 0 42 4 131 10 197 19 223 40 560 40 638 0 55 -4 77
-12 77 -48 -1 -163 -22 -174 -31 -8 -6 -14 -30 -14 -53 0 -22 -4 -95 -10 -161
-25 -296 -42 -594 -44 -736 -1 -132 2 -159 17 -182 23 -36 22 -56 -5 -61 -13
-2 -47 -9 -76 -15 -76 -16 -121 -14 -129 4 -5 15 7 255 27 500 39 496 36 587
-22 645 -56 57 -131 36 -228 -64 -24 -25 -52 -46 -61 -46 -10 0 -27 16 -39 35
-12 19 -30 40 -40 45 -41 22 -118 7 -150 -29 -28 -32 -93 -80 -100 -76 -6 4
-10 20 -10 37 l0 31 -72 -6 c-40 -3 -87 -11 -104 -17 l-32 -11 -6 -122 c-4
-67 -11 -180 -16 -252 -32 -414 -53 -806 -43 -816 4 -4 26 -4 48 1 22 5 56 10
76 10 54 0 69 17 74 80 4 56 13 187 41 615 8 132 17 250 19 261 3 12 19 35 37
53 39 38 91 43 108 10 11 -19 4 -159 -30 -604 -17 -230 -22 -343 -15 -363 5
-18 10 -19 38 -11 17 5 51 9 74 9 76 0 71 -22 97 415 9 143 21 328 28 410 l12
150 34 33 c38 37 80 42 106 13 15 -17 16 -30 7 -127 -10 -103 -20 -248 -42
-619 -13 -235 -14 -235 -79 -252 -25 -7 -35 -15 -34 -29 3 -35 22 -175 64
-459 5 -33 14 -99 21 -147 12 -87 16 -95 52 -89 4 1 43 6 85 11 42 6 104 15
137 20 33 5 110 17 170 25 61 8 139 20 175 25 97 15 266 39 345 50 79 11 248
35 345 50 36 5 115 17 175 25 61 8 137 20 170 25 33 5 88 13 122 16 35 4 67
12 73 19 10 12 4 72 -25 275 -16 105 -23 159 -46 325 -7 50 -18 96 -24 103
-13 15 -16 14 -284 -23 -63 -9 -121 -13 -129 -10 -16 6 -13 84 14 459 8 109
14 223 14 254 0 106 19 181 57 223 41 45 84 69 127 69 54 0 59 9 64 124 5 120
4 123 -73 87z m-829 -1295 c-10 -16 -26 -26 -41 -26 -33 0 -32 22 1 55 24 24
28 25 42 11 14 -13 13 -17 -2 -40z m839 -9 c8 -13 19 -55 24 -93 9 -65 32
-211 47 -297 l7 -38 47 2 c58 3 70 -4 70 -42 0 -37 -33 -53 -127 -64 -55 -6
-63 -5 -74 13 -13 20 -13 20 -24 -1 -16 -33 -60 -45 -85 -22 -11 10 -20 24
-20 30 0 7 -7 28 -15 48 -11 28 -19 34 -35 30 -17 -5 -20 -14 -20 -58 0 -61
-22 -88 -66 -83 -25 3 -30 8 -35 43 -4 22 -6 74 -4 115 2 41 4 141 4 222 1
119 4 149 17 162 19 20 97 21 113 2 6 -7 31 -85 56 -172 24 -88 50 -177 56
-199 33 -118 35 -24 4 170 -25 160 -29 223 -15 240 19 23 57 18 75 -8z m-374
-47 c18 -10 19 -24 19 -270 l0 -260 -24 -15 c-15 -10 -40 -15 -63 -13 l-38 3
-26 80 c-15 44 -35 107 -44 140 -35 123 -47 161 -55 180 -5 11 -13 34 -18 50
l-10 30 -1 -29 c-1 -16 3 -45 8 -65 6 -20 17 -97 26 -171 9 -74 18 -154 21
-176 3 -30 0 -46 -11 -58 -22 -21 -62 -20 -73 2 -12 21 -44 223 -58 360 -5 50
-9 60 -20 51 -10 -8 -13 -57 -13 -210 0 -111 -5 -208 -10 -218 -20 -36 -131
-35 -131 1 0 11 -16 66 -76 260 -13 42 -24 82 -24 89 0 6 -7 26 -16 45 -11 24
-20 31 -28 25 -6 -5 -28 -12 -48 -16 -33 -6 -38 -11 -38 -35 0 -15 3 -42 6
-59 6 -28 10 -31 45 -31 33 0 41 -4 51 -26 15 -33 2 -56 -40 -69 -27 -8 -32
-14 -32 -40 0 -16 5 -47 11 -69 10 -38 11 -38 52 -32 49 7 63 0 72 -35 9 -36
-17 -54 -101 -68 -58 -10 -76 -10 -93 1 -18 11 -22 10 -34 -5 -13 -19 -64 -26
-86 -13 -6 4 -24 31 -39 59 l-27 52 -3 -67 -3 -67 -34 -7 c-18 -3 -38 -3 -44
0 -11 7 -24 69 -46 221 -9 61 -21 139 -26 175 -6 36 -9 83 -7 104 3 39 5 40
53 53 103 26 155 9 186 -63 23 -56 26 -169 4 -198 -8 -11 -15 -29 -15 -40 1
-21 49 -111 83 -157 18 -24 18 -24 12 26 -6 55 -41 290 -60 402 -10 57 13 71
125 75 47 2 88 7 91 11 4 5 21 9 40 10 28 2 36 -3 48 -27 8 -17 18 -44 22 -60
4 -17 15 -56 24 -86 9 -30 19 -67 22 -82 13 -67 23 -17 25 125 l3 152 37 3
c34 3 38 0 44 -25 10 -46 12 -50 13 -17 1 18 10 39 21 49 18 16 27 17 60 8 31
-8 40 -7 44 4 3 7 20 13 41 13 39 0 43 -6 72 -105 8 -27 18 -63 23 -80 5 -16
16 -52 24 -80 14 -49 15 -47 15 112 1 143 3 163 19 172 22 13 29 13 53 1z"/>
<path d="M6980 753 c0 -13 5 -23 10 -23 13 0 13 11 0 30 -8 12 -10 11 -10 -7z"/>
<path d="M5789 773 c0 -5 0 -30 1 -58 2 -57 20 -85 43 -67 26 22 -3 131 -35
132 -5 0 -8 -3 -9 -7z"/>
<path d="M3790 2289 c-25 -5 -50 -16 -56 -24 -15 -20 -28 -175 -17 -186 12
-12 175 9 190 24 6 7 15 54 19 105 l7 92 -49 -1 c-27 -1 -69 -5 -94 -10z"/>
<path d="M4242 2236 c-40 -7 -76 -16 -82 -22 -5 -5 -12 -67 -16 -139 -4 -71
-11 -135 -16 -141 -4 -6 -26 -14 -47 -18 -21 -3 -43 -11 -49 -18 -5 -7 -12
-49 -13 -93 l-4 -80 42 0 c24 -1 47 -5 53 -11 6 -6 6 -61 0 -159 -44 -679 -39
-747 55 -805 32 -20 46 -22 113 -18 42 3 89 11 103 18 25 11 27 18 33 101 4
49 4 94 1 99 -4 6 -23 7 -44 4 -31 -5 -42 -2 -58 15 -28 30 -32 75 -22 221 5
69 13 208 19 310 11 204 17 245 34 258 6 5 33 12 61 16 27 3 55 12 62 19 8 8
14 44 15 92 l3 80 -61 -3 c-85 -4 -86 -1 -73 141 7 64 9 123 6 131 -7 18 -15
18 -115 2z"/>
<path d="M4730 2010 c-19 -4 -51 -11 -71 -14 l-36 -6 -6 -88 c-4 -48 -11 -154
-16 -237 -20 -316 -32 -484 -41 -600 -6 -66 -10 -155 -10 -197 0 -90 -8 -85
112 -66 44 7 80 18 82 25 3 7 10 84 16 171 5 86 14 220 20 297 27 381 40 596
40 658 0 67 0 67 -27 66 -16 -1 -44 -5 -63 -9z"/>
<path d="M1752 1995 c-46 -6 -87 -17 -91 -24 -5 -7 -11 -60 -15 -119 -3 -59
-11 -172 -16 -252 -13 -213 -28 -446 -40 -605 -30 -408 -42 -616 -37 -628 4
-11 20 -11 100 1 l95 15 6 46 c4 25 11 119 17 208 10 175 25 233 59 233 11 0
20 -3 20 -7 0 -5 4 -33 10 -63 37 -216 50 -299 50 -326 0 -60 14 -67 114 -52
l88 12 -5 61 c-3 33 -10 80 -16 105 -9 41 -24 118 -52 280 -12 64 -36 195 -50
263 -11 60 -12 100 0 113 4 5 23 45 41 89 30 73 67 157 107 243 9 18 13 36 9
39 -11 11 -157 -14 -170 -28 -7 -8 -39 -83 -71 -166 -35 -94 -63 -153 -71
-153 -17 0 -18 75 -3 280 17 232 26 424 21 438 -2 6 -7 11 -11 11 -3 -1 -44
-7 -89 -14z"/>
<path d="M3840 1880 c-14 -4 -44 -8 -67 -9 -72 -2 -79 -16 -87 -177 -3 -76
-11 -193 -16 -259 -5 -66 -17 -230 -25 -365 -8 -135 -18 -282 -21 -327 l-5
-83 45 0 c55 0 148 20 158 34 4 6 8 43 8 83 0 40 4 116 10 170 5 54 15 179 21
278 13 212 25 408 35 558 8 118 8 117 -56 97z"/>
<path d="M3230 1804 c-109 -39 -179 -121 -215 -251 -24 -86 -17 -202 15 -269
15 -30 62 -87 123 -148 127 -128 147 -159 147 -230 0 -93 -39 -156 -97 -156
-48 0 -83 40 -83 94 0 65 -6 68 -94 60 -101 -9 -110 -19 -103 -100 9 -90 46
-166 98 -201 39 -26 50 -28 133 -28 81 1 97 4 145 30 125 69 199 217 189 379
-7 108 -40 167 -163 290 -56 55 -109 117 -118 138 -40 85 3 228 68 228 35 0
55 -22 63 -70 l8 -45 64 1 c36 1 77 6 93 12 25 11 27 16 27 69 0 79 -27 149
-69 182 -29 22 -46 26 -110 29 -50 1 -91 -3 -121 -14z"/>
<path d="M316 1789 c-38 -4 -72 -11 -77 -16 -8 -9 -22 -164 -44 -523 -8 -135
-20 -306 -25 -380 -29 -404 -40 -582 -40 -647 0 -84 -8 -80 115 -58 44 8 81
14 83 15 1 0 2 11 2 24 0 14 3 27 8 29 4 3 34 -8 67 -24 71 -33 87 -35 140
-10 95 44 129 122 145 332 22 293 31 445 36 614 7 193 -2 231 -59 265 -57 35
-102 24 -194 -46 -73 -55 -69 -77 -47 324 l7 112 -24 -1 c-13 -1 -55 -5 -93
-10z m196 -604 c8 -19 8 -79 -1 -243 -24 -432 -30 -501 -42 -524 -27 -50 -73
-62 -104 -28 -17 18 -18 34 -11 183 4 89 11 205 16 257 5 52 10 133 10 180 1
129 34 200 92 200 21 0 32 -7 40 -25z"/>
<path d="M2531 1700 c-125 -45 -217 -154 -247 -295 -7 -33 -13 -66 -14 -72 0
-17 65 -16 145 0 l60 13 8 62 c7 47 15 69 37 92 33 36 52 38 81 9 20 -20 21
-29 17 -115 -4 -62 -11 -101 -21 -118 -9 -13 -51 -49 -94 -79 -202 -142 -293
-301 -293 -508 0 -98 21 -177 55 -209 55 -51 161 -28 228 50 41 48 60 50 72 8
10 -32 12 -33 55 -30 25 2 70 9 99 15 l53 12 3 105 c2 58 8 184 15 280 28 424
36 607 27 648 -12 57 -76 126 -132 141 -56 15 -92 13 -154 -9z m59 -717 c0
-42 -5 -117 -11 -165 -11 -84 -14 -91 -45 -115 -86 -65 -140 -5 -114 126 23
120 119 259 163 234 4 -2 7 -38 7 -80z"/>
<path d="M1175 1511 c-54 -10 -114 -37 -144 -64 -13 -12 -43 -51 -66 -87 -66
-101 -71 -131 -107 -677 -13 -201 -6 -265 37 -333 40 -63 68 -75 170 -74 100
1 142 14 200 66 81 70 118 149 136 290 15 113 11 123 -44 113 -23 -4 -62 -11
-87 -14 l-45 -6 -7 -73 c-11 -104 -25 -148 -55 -171 -66 -53 -123 -5 -123 105
0 87 21 237 35 252 7 8 46 18 86 23 41 5 115 15 164 22 l90 12 12 100 c26 222
14 378 -33 450 -36 55 -129 82 -219 66z m53 -201 c20 -19 22 -31 22 -125 0
-142 -3 -148 -85 -164 -97 -20 -102 -13 -86 121 13 110 32 155 72 175 34 18
52 16 77 -7z"/>
<path d="M128 3 c39 -2 105 -2 145 0 39 1 7 3 -73 3 -80 0 -112 -2 -72 -3z"/>
</g>
</svg>
